<svg xmlns="http://www.w3.org/2000/svg" width="53" height="48" viewBox="0 0 53 48"><g><g><path fill="#ff6c6c" d="M48.238.752H4.658A4.652 4.652 0 0 0 0 5.41v37.473a4.652 4.652 0 0 0 4.658 4.658h43.58c2.578 0 4.762-2.08 4.762-4.658V5.41C53 2.833 50.816.752 48.238.752z"/></g><g><path fill="#e63950" d="M53 5.41v37.473c0 2.577-2.184 4.658-4.762 4.658H26.5V.752h21.738C50.816.752 53 2.832 53 5.41z"/></g><g><path fill="#fff5f5" d="M45.133 6.963H7.867c-.87 0-1.553.683-1.553 1.553v31.261c0 .87.684 1.553 1.553 1.553h37.266c.87 0 1.553-.683 1.553-1.553V8.516c0-.87-.684-1.553-1.553-1.553z"/></g><g><path fill="#efe2dd" d="M46.686 8.516v31.261c0 .87-.684 1.553-1.553 1.553H26.5V6.963h18.633c.87 0 1.553.683 1.553 1.553z"/></g><g><path fill="#fabe2c" d="M33.539 17.936h-.828v-.829a1.552 1.552 0 1 0-3.106 0v.829h-.724a1.552 1.552 0 1 0 0 3.105h.724v.725a1.552 1.552 0 1 0 3.106 0v-.725h.828a1.552 1.552 0 1 0 0-3.105z"/></g><g><path fill="#fed843" d="M36.48 24.49a1.553 1.553 0 0 0-1.731.048 6.164 6.164 0 0 1-3.59 1.161c-1.865 0-3.52-.842-4.659-2.146-.954-1.092-1.553-2.503-1.553-4.065 0-1.283.402-2.523 1.162-3.59a1.55 1.55 0 0 0 .047-1.732 1.55 1.55 0 0 0-1.588-.698 10.847 10.847 0 0 0-8.937 10.678c0 5.993 4.876 10.87 10.869 10.87 5.254 0 9.746-3.76 10.678-8.938a1.553 1.553 0 0 0-.697-1.587z"/></g><g><path fill="#fabe2c" d="M37.178 26.078a1.553 1.553 0 0 0-2.43-1.54 6.164 6.164 0 0 1-3.59 1.161c-1.864 0-3.519-.842-4.658-2.146v11.463c5.254 0 9.746-3.76 10.678-8.938z"/></g></g></svg>