<svg xmlns="http://www.w3.org/2000/svg" width="40" height="55" viewBox="0 0 40 55"><g><g><g><path fill="#f45858" d="M0 4.505h40v49.78H0z"/></g><g><path fill="#dfeef4" d="M4.812 9.073h30.377V49.5H4.812z"/></g><g><path fill="#3ea2e5" d="M28.098 9.073V2.866a2.028 2.028 0 0 0-2.03-2.03H13.932c-1.12 0-2.028.909-2.028 2.029v6.207z"/></g><g><path fill="#f2da30" d="M9.649 25.644h7.285v7.285H9.649z"/></g><g><path fill="#f2da30" d="M9.649 37.571h7.285v7.285H9.649z"/></g><g><path fill="#f2da30" d="M9.649 13.716h7.285v7.285H9.649z"/></g><g><g><path fill="#6d7a84" d="M30.351 18.17h-9.586a.81.81 0 1 1 0-1.622h9.586a.81.81 0 0 1 0 1.621z"/></g><g><path fill="#6d7a84" d="M30.351 30.097h-9.586a.81.81 0 1 1 0-1.621h9.586a.81.81 0 0 1 0 1.62z"/></g><g><path fill="#6d7a84" d="M30.351 42.025h-9.586a.81.81 0 0 1 0-1.622h9.586a.81.81 0 0 1 0 1.622z"/></g><g><path fill="#6d7a84" d="M13.296 19.054a.808.808 0 0 1-.573-.238l-1.22-1.22a.81.81 0 1 1 1.147-1.145l.646.646 4.934-4.933a.81.81 0 1 1 1.146 1.146l-5.506 5.506a.808.808 0 0 1-.574.238z"/></g><g><path fill="#6d7a84" d="M13.296 30.982a.808.808 0 0 1-.573-.238l-1.22-1.22a.81.81 0 1 1 1.147-1.146l.646.647 4.934-4.933a.81.81 0 1 1 1.146 1.146l-5.506 5.506a.808.808 0 0 1-.574.238z"/></g><g><path fill="#6d7a84" d="M13.296 42.91a.808.808 0 0 1-.573-.238l-1.22-1.22a.81.81 0 1 1 1.147-1.146l.646.646 4.934-4.932a.81.81 0 1 1 1.146 1.146l-5.506 5.506a.808.808 0 0 1-.574.237z"/></g></g></g></g></svg>