<svg xmlns="http://www.w3.org/2000/svg" width="42" height="63" viewBox="0 0 42 63"><g><g><g><g><path fill="#ffe1ba" d="M12.863 62.92H1.838A1.838 1.838 0 0 1 0 61.081a5.513 5.513 0 0 1 5.513-5.513h7.35l3.675 3.292z"/></g><g><path fill="#ffbfab" d="M39.691 29.353l-2.83 2.132-5.185-1.884.591-3.85 3.014-2.278c1.58-1.176 3.895-.918 5.145.735 1.25 1.654.882 3.933-.735 5.145z"/></g><g><g><path fill="#fff5f5" d="M21.5 35.234a7.39 7.39 0 0 0 9.555.624l2.866-2.168 2.94-2.205-4.594-5.733-2.94 2.205-2.683 2.021-2.903-4.336a7.278 7.278 0 0 0-6.1-3.271h-6.616c-4.042 0-7.35 3.307-7.35 7.35v18.498c0 4.042 3.308 7.35 7.35 7.35h1.838v7.35h12.863c4.042 0 7.35-3.307 7.35-7.35 0-4.043-3.308-7.35-7.35-7.35H22.05a3.686 3.686 0 0 1-3.676-3.675v-12.36z"/></g><g><path fill="#efe2dd" d="M33.076 55.57c0-4.044-3.308-7.351-7.35-7.351H22.05a3.686 3.686 0 0 1-3.675-3.675v-12.36l3.124 3.05a7.39 7.39 0 0 0 9.556.624l2.866-2.168 2.94-2.205-4.594-5.733-2.94 2.205-2.683 2.021-2.903-4.336a7.278 7.278 0 0 0-6.1-3.271h-4.778v40.548h12.863c4.042 0 7.35-3.307 7.35-7.35z"/></g></g><g><path fill="#ffe1ba" d="M16.538 7.67h-7.35l-3.675 3.676v3.675a7.357 7.357 0 0 0 7.35 7.35 7.357 7.357 0 0 0 7.35-7.35v-3.675z"/></g><g><path fill="#ffbfab" d="M20.213 15.02v-3.674L16.538 7.67h-3.675v14.7a7.357 7.357 0 0 0 7.35-7.35z"/></g><g><path fill="#ff6c6c" d="M18.375.198H7.35a1.836 1.836 0 0 0-1.837 1.837v9.31h14.7v-9.31A1.837 1.837 0 0 0 18.375.198z"/></g><g><path fill="#e63950" d="M20.213 2.035A1.836 1.836 0 0 0 18.375.198h-5.512v11.148h7.35z"/></g></g></g></g></svg>