<svg xmlns="http://www.w3.org/2000/svg" width="53" height="53" viewBox="0 0 53 53"><g><g><g><g><path fill="#e63950" d="M44.272 53.06c.463.13.961.04 1.35-.252.385-.291.612-.747.612-1.23v-9.393l-8.14-.752-11.87 6.47z"/></g><g><path fill="#ff6c6c" d="M6.214 51.579c0 .482.226.938.611 1.23.388.29.886.381 1.35.25l18.049-5.157-11.625-6.4-8.385.683z"/></g><g><path fill="#613d5c" d="M51.83 7.01a1.53 1.53 0 0 0-1.417-.177L42.36 9.814H10.086l-8.052-2.98a1.542 1.542 0 0 0-2.08 1.442v30.989a1.54 1.54 0 0 0 1.117 1.48l5.143 1.44 20.01 5.717 20.01-5.717 5.142-1.44a1.54 1.54 0 0 0 1.117-1.48V8.275c0-.505-.248-.977-.663-1.266z"/></g><g><path fill="#4b2746" d="M51.376 40.745a1.54 1.54 0 0 0 1.117-1.48V8.275a1.542 1.542 0 0 0-2.08-1.442l-8.051 2.981H26.224v38.088l20.01-5.717z"/></g><g><path fill="#fff5f5" d="M45.587.856c-.4-.277-.923-.37-1.385-.185L26.224 6.643 8.245.671A1.473 1.473 0 0 0 6.86.856c-.4.308-.646.77-.646 1.262v25.787l20.01 10.682 20.01-10.713V2.118c0-.493-.247-.954-.647-1.262z"/></g><g><path fill="#efe2dd" d="M46.234 2.118c0-.493-.247-.954-.647-1.262-.4-.277-.924-.37-1.385-.185L26.223 6.643v31.944l20.01-10.713V2.118z"/></g><g><path fill="#efe2dd" d="M31.58 32.77a9.918 9.918 0 0 0-5.356 4.278 9.918 9.918 0 0 0-5.357-4.279L6.214 27.905v5.203c0 .677.43 1.262 1.046 1.447l18.471 6.157c.154.061.339.092.493.092.153 0 .338-.03.492-.092l18.47-6.157c.616-.185 1.048-.77 1.048-1.447v-5.234z"/></g><g><path fill="#cdbfba" d="M45.187 34.555c.616-.185 1.047-.77 1.047-1.447v-5.234L31.58 32.77a9.918 9.918 0 0 0-5.356 4.28v3.755c.154 0 .338-.03.492-.092z"/></g></g></g></g></svg>