<svg xmlns="http://www.w3.org/2000/svg" width="57" height="58" viewBox="0 0 57 58"><g><g><g><g><path fill="#65d6a9" d="M9.697 8.158a1.717 1.717 0 0 0-1.27.487 1.673 1.673 0 0 0-.488 1.27c.05.916.361 5.947 1.414 10.875l9.307-1.911 1.912-9.307c-4.929-1.053-9.96-1.365-10.875-1.414z"/></g><g><path fill="#65d6a9" d="M18.66 38.558l-9.307-1.911C8.3 41.575 7.99 46.605 7.94 47.52c-.024.473.152.935.488 1.27.334.337.81.53 1.27.488.916-.05 5.947-.36 10.875-1.414z"/></g><g><path fill="#e63950" d="M9.353 20.79c-4.228 2.74-8.116 6.073-8.798 6.686a1.67 1.67 0 0 0 0 2.485c.682.613 4.57 3.946 8.798 6.685l6.192-7.928z"/></g><g><path fill="#ff6c6c" d="M16.99 17.21c-2.318.473-5.057 1.909-7.637 3.58.64 2.997 1.554 5.956 2.852 7.929-1.298 1.973-2.211 4.931-2.852 7.928 2.58 1.671 5.32 3.107 7.638 3.58l5.584-11.508z"/></g><g><path fill="#26bfa6" d="M48.573 8.645a1.672 1.672 0 0 0-1.27-.487c-.916.05-5.946.36-10.875 1.414l1.912 9.307 9.307 1.911c1.053-4.928 1.364-9.959 1.414-10.874a1.674 1.674 0 0 0-.488-1.27z"/></g><g><path fill="#26bfa6" d="M47.647 36.647l-9.307 1.911-1.912 9.307c4.928 1.053 9.959 1.365 10.875 1.414.03.002.06.002.09.002a1.673 1.673 0 0 0 1.668-1.76c-.05-.915-.361-5.946-1.414-10.874z"/></g><g><path fill="#ae2538" d="M56.446 27.476c-.683-.613-4.57-3.946-8.8-6.685l-6.191 7.928 6.192 7.928c4.228-2.74 8.116-6.073 8.799-6.686a1.67 1.67 0 0 0 0-2.485z"/></g><g><path fill="#e63950" d="M47.647 20.79c-2.58-1.671-5.32-3.107-7.638-3.581l-5.584 11.51 5.585 11.509c2.318-.474 5.057-1.91 7.637-3.581-.64-2.997-1.554-5.956-2.852-7.929 1.298-1.973 2.212-4.931 2.852-7.928z"/></g><g><path fill="#e63950" d="M28.5 41.673l-7.928 6.192c2.74 4.229 6.073 8.116 6.685 8.799a1.67 1.67 0 0 0 2.486 0c.612-.683 3.945-4.57 6.685-8.799z"/></g><g><path fill="#ae2538" d="M36.428 47.865L28.5 41.673v15.545a1.67 1.67 0 0 0 1.243-.554c.612-.683 3.945-4.57 6.685-8.799z"/></g><g><path fill="#ff6c6c" d="M28.5 34.643l-11.51 5.585c.474 2.318 1.91 5.057 3.582 7.637 2.996-.64 5.955-1.554 7.928-2.852 1.973 1.298 4.932 2.212 7.928 2.852 1.672-2.58 3.108-5.319 3.581-7.637z"/></g><g><path fill="#e63950" d="M40.01 40.228L28.5 34.643v10.37c1.973 1.298 4.932 2.212 7.928 2.852 1.672-2.58 3.108-5.319 3.581-7.637z"/></g><g><path fill="#e63950" d="M29.743.773C29.426.42 28.963.245 28.5.245c-.463 0-.926.176-1.243.528-.612.683-3.945 4.57-6.685 8.799l7.928 6.192 7.928-6.192c-2.74-4.229-6.073-8.116-6.685-8.8z"/></g><g><path fill="#ae2538" d="M29.743.773C29.426.42 28.963.245 28.5.245v15.518l7.928-6.191c-2.74-4.229-6.073-8.116-6.685-8.8z"/></g><g><path fill="#ff6c6c" d="M36.428 9.572c-2.996.64-5.955 1.554-7.928 2.852-1.973-1.298-4.932-2.212-7.928-2.852-1.672 2.58-3.108 5.319-3.581 7.637L28.5 22.794l11.51-5.585c-.474-2.318-1.91-5.057-3.582-7.637z"/></g><g><path fill="#e63950" d="M36.428 9.572c-2.996.64-5.955 1.554-7.928 2.852v10.37l11.51-5.585c-.474-2.318-1.91-5.057-3.582-7.637z"/></g><g><path fill="#fed843" d="M34.425 28.719c3.433-2.04 5.764-5.746 5.764-10.02 0-.468-.074-.972-.18-1.49-.518-.106-1.021-.18-1.49-.18-4.273 0-7.98 2.331-10.019 5.765-2.039-3.434-5.746-5.765-10.02-5.765-.468 0-.971.074-1.49.18-.105.518-.18 1.022-.18 1.49 0 4.274 2.332 7.98 5.765 10.02-3.433 2.038-5.764 5.745-5.764 10.019 0 .468.074.972.18 1.49.518.106 1.021.18 1.49.18 4.273 0 7.98-2.331 10.019-5.765 2.039 3.434 5.746 5.765 10.02 5.765.468 0 .971-.074 1.49-.18.105-.518.18-1.022.18-1.49 0-4.274-2.332-7.98-5.765-10.02z"/></g><g><path fill="#fabe2c" d="M38.52 40.408c.468 0 .971-.074 1.49-.18.105-.518.18-1.022.18-1.49 0-4.274-2.332-7.98-5.765-10.02 3.433-2.038 5.764-5.745 5.764-10.019 0-.468-.074-.972-.18-1.49-.518-.106-1.021-.18-1.49-.18-4.273 0-7.98 2.331-10.019 5.765v11.85c2.039 3.433 5.746 5.764 10.02 5.764z"/></g></g></g></g></svg>