<svg xmlns="http://www.w3.org/2000/svg" width="57" height="58" viewBox="0 0 57 58"><g><g><g><g><g><path fill="#351b33" d="M49.368 16.883a18.265 18.265 0 0 0-1.745-3.016 1.67 1.67 0 0 1 .39-2.33c.75-.535 1.801-.373 2.33.39a21.63 21.63 0 0 1 2.063 3.57 1.67 1.67 0 1 1-3.039 1.387z"/></g><g><path fill="#351b33" d="M50.944 26.267c.11-1.157.11-2.33 0-3.486a1.668 1.668 0 0 1 1.504-1.821 1.664 1.664 0 0 1 1.82 1.504c.13 1.368.13 2.752 0 4.119a1.668 1.668 0 0 1-1.82 1.504 1.668 1.668 0 0 1-1.504-1.82z"/></g><g><path fill="#351b33" d="M47.8 37.33a1.672 1.672 0 0 1-.177-2.15 18.26 18.26 0 0 0 1.745-3.016 1.669 1.669 0 0 1 2.212-.826 1.666 1.666 0 0 1 .826 2.213 21.64 21.64 0 0 1-2.062 3.57 1.67 1.67 0 0 1-2.543.21z"/></g><g><path fill="#351b33" d="M39.462 43.457a1.669 1.669 0 0 1 .826-2.213 18.273 18.273 0 0 0 3.016-1.745c.75-.535 1.802-.371 2.33.39a1.67 1.67 0 0 1-.39 2.33 21.632 21.632 0 0 1-3.57 2.064 1.669 1.669 0 0 1-2.212-.826z"/></g><g><path fill="#351b33" d="M29.084 44.324a1.668 1.668 0 0 1 1.82-1.504c1.157.11 2.33.11 3.487 0a1.666 1.666 0 0 1 1.82 1.504 1.668 1.668 0 0 1-1.504 1.82c-1.367.13-2.752.13-4.119 0a1.669 1.669 0 0 1-1.504-1.82z"/></g><g><path fill="#351b33" d="M19.66 39.89a1.67 1.67 0 0 1 2.331-.39 18.251 18.251 0 0 0 3.016 1.744 1.67 1.67 0 0 1-1.387 3.039 21.64 21.64 0 0 1-3.57-2.063 1.671 1.671 0 0 1-.39-2.33z"/></g></g><g><path fill="#4b2746" d="M11.027 26.583a21.74 21.74 0 0 1 0-4.119 1.668 1.668 0 0 1 1.82-1.504 1.672 1.672 0 0 1 1.504 1.82c-.11 1.158-.11 2.33 0 3.487a1.668 1.668 0 0 1-1.504 1.82 1.669 1.669 0 0 1-1.82-1.504z"/></g><g><path fill="#4b2746" d="M12.889 15.496a21.642 21.642 0 0 1 2.062-3.57 1.67 1.67 0 0 1 2.33-.39 1.66 1.66 0 0 1 .39 2.331 18.255 18.255 0 0 0-1.744 3.016 1.669 1.669 0 1 1-3.039-1.387z"/></g><g><path fill="#4b2746" d="M19.66 9.158a1.67 1.67 0 0 1 .39-2.33 21.633 21.633 0 0 1 3.57-2.063 1.67 1.67 0 1 1 1.387 3.039 18.272 18.272 0 0 0-3.016 1.744 1.672 1.672 0 0 1-2.33-.39z"/></g><g><path fill="#4b2746" d="M29.084 4.723a1.668 1.668 0 0 1 1.504-1.82c1.367-.13 2.752-.13 4.119 0a1.67 1.67 0 1 1-.316 3.325c-1.157-.11-2.33-.11-3.487 0a1.669 1.669 0 0 1-1.82-1.505z"/></g><g><path fill="#4b2746" d="M39.462 5.59a1.669 1.669 0 0 1 2.213-.825 21.64 21.64 0 0 1 3.57 2.063c.753.525.924 1.579.39 2.33a1.67 1.67 0 0 1-2.33.39 18.26 18.26 0 0 0-3.017-1.744 1.67 1.67 0 0 1-.826-2.213z"/></g><g><path fill="#4b2746" d="M14.951 37.12a21.634 21.634 0 0 1-2.062-3.569 1.669 1.669 0 0 1 .826-2.213 1.675 1.675 0 0 1 2.212.826 18.271 18.271 0 0 0 1.745 3.016 1.67 1.67 0 1 1-2.72 1.94z"/></g><g><g><path fill="#613d5c" d="M41.812 10.347a5.012 5.012 0 1 1 10.024 0 5.012 5.012 0 0 1-10.024 0z"/></g><g><path fill="#613d5c" d="M13.46 38.7a5.012 5.012 0 1 1 10.023 0 5.012 5.012 0 0 1-10.024 0z"/></g></g><g><path fill="#4b2746" d="M50.368 13.891a5.018 5.018 0 0 0 0-7.088l-7.088 7.088a5.018 5.018 0 0 0 7.088 0z"/></g><g><path fill="#4b2746" d="M22.015 42.244a5.018 5.018 0 0 0 0-7.088l-7.088 7.088a5.018 5.018 0 0 0 7.088 0z"/></g><g><path fill="#ff6c6c" d="M14.927 42.244a6.69 6.69 0 0 0-9.45 0C3.318 44.401.543 53.334.062 55.05c-.164.581 0 1.206.426 1.633.427.427 1.053.591 1.634.427 1.715-.48 10.647-3.257 12.804-5.414a6.69 6.69 0 0 0 0-9.45z"/></g><g><path fill="#e63950" d="M2.123 57.109c1.715-.481 10.647-3.257 12.804-5.414a6.69 6.69 0 0 0 0-9.45L.489 56.681c.427.427 1.053.59 1.634.427z"/></g><g><path fill="#4b2746" d="M47.171 28.415a5.022 5.022 0 0 1 6.14-3.544 4.982 4.982 0 0 1 3.042 2.336c.67 1.16.847 2.51.5 3.804a5.019 5.019 0 0 1-6.137 3.545c-2.65-.714-4.264-3.45-3.545-6.141z"/></g><g><path fill="#4b2746" d="M22.615 42.592a5.023 5.023 0 0 1 6.141-3.545 5.023 5.023 0 0 1 3.544 6.14 5.009 5.009 0 0 1-6.14 3.542c-2.671-.713-4.255-3.472-3.545-6.137z"/></g><g><path fill="#4b2746" d="M32.995 45.187a5.02 5.02 0 0 1 3.543-6.139 5.018 5.018 0 0 1 6.14 3.542l.002.002a5.02 5.02 0 0 1-3.547 6.138 5.01 5.01 0 0 1-6.138-3.543z"/></g><g><path fill="#4b2746" d="M47.172 20.634a5.019 5.019 0 0 1 3.542-6.14 5.027 5.027 0 0 1 6.14 3.544 5.01 5.01 0 0 1-3.543 6.139 5.021 5.021 0 0 1-6.139-3.543z"/></g><g><path fill="#4b2746" d="M43.28 42.244a5.018 5.018 0 0 1 0-7.088 5.018 5.018 0 0 1 7.088 0 5.018 5.018 0 0 1 0 7.088 5.018 5.018 0 0 1-7.088 0z"/></g><g><path fill="#613d5c" d="M8.442 18.037a5.019 5.019 0 0 1 6.137-3.546l.002.003c2.667.71 4.255 3.468 3.543 6.138a5.022 5.022 0 0 1-6.14 3.545 5.01 5.01 0 0 1-3.542-6.14z"/></g><g><path fill="#613d5c" d="M32.995 3.86A5.009 5.009 0 0 1 39.135.32a5.02 5.02 0 0 1 3.545 6.136l-.003.002A5.02 5.02 0 0 1 36.54 10a5.022 5.022 0 0 1-3.544-6.14z"/></g><g><path fill="#613d5c" d="M22.617 6.457a5.018 5.018 0 0 1 3.545-6.14A5.01 5.01 0 0 1 32.3 3.86 5.02 5.02 0 0 1 28.757 10a5.02 5.02 0 0 1-6.14-3.542z"/></g><g><path fill="#613d5c" d="M8.441 31.01a5.01 5.01 0 0 1 3.543-6.139 5.022 5.022 0 0 1 6.139 3.543 5.019 5.019 0 0 1-3.542 6.14l-.002.002A5.02 5.02 0 0 1 8.44 31.01z"/></g><g><path fill="#613d5c" d="M14.927 13.891a5.018 5.018 0 0 1 0-7.088 5.018 5.018 0 0 1 7.088 0 5.018 5.018 0 0 1 0 7.088 5.018 5.018 0 0 1-7.088 0z"/></g></g></g></g></svg>