<svg xmlns="http://www.w3.org/2000/svg" width="20" height="20" viewBox="0 0 20 20"><g><g><g><g><path fill="#bfbdbd" d="M3.078 19.244l4.563-1.3-5.286-1.512v2.27c0 .18.08.339.226.452.16.124.317.126.497.09z"/></g><g><path fill="#bfbdbd" d="M16.805 19.154a.556.556 0 0 0 .226-.452v-2.27l-5.286 1.512 4.563 1.3c.178.036.335.036.497-.09z"/></g><g><path fill="#bfbdbd" d="M15.902.565a.564.564 0 0 0-.743-.536l-4.902 1.634v9.87c.39-.376.861-.674 1.4-.854l4.245-1.415V.565z"/></g><g><path fill="#bfbdbd" d="M9.129 11.534v-9.87L4.227.028a.564.564 0 0 0-.743.536v8.7L7.73 10.68c.538.179 1.01.477 1.399.854z"/></g><g><path fill="#bfbdbd" d="M18.559 2.292l-1.528.564v9.073a.564.564 0 0 1-.386.535l-6.773 2.258a.566.566 0 0 1-.358 0l-6.773-2.258a.564.564 0 0 1-.386-.535V2.856L.827 2.292a.563.563 0 0 0-.519.068.554.554 0 0 0-.248.462v11.365c0 .248.169.474.406.542.27.076.106.029.033.008.213.06 1.798.504 9.193 2.622.011-.003.03-.008 0 0h.001c.94-.27.712-.193 9.227-2.63a.569.569 0 0 0 .406-.542V2.822c0-.18-.09-.36-.248-.463a.563.563 0 0 0-.52-.067z"/></g><g/><g><path fill="#bfbdbd" d="M3.484 11.522l5.505 1.835a2.56 2.56 0 0 0-1.617-1.606l-3.888-1.297z"/></g><g><path fill="#bfbdbd" d="M10.397 13.357l5.505-1.835v-1.068l-3.888 1.296a2.562 2.562 0 0 0-1.617 1.607z"/></g></g></g></g></svg>