<svg xmlns="http://www.w3.org/2000/svg" width="21" height="21" viewBox="0 0 21 21"><g><g><g><g><path fill="#bfbdbd" d="M7.933 5.014c.497-.498.625-1.209.429-1.838.07-.042.14-.083.211-.122a1.824 1.824 0 0 0 1.819.54 1.824 1.824 0 0 0 1.303-1.376h.231a1.825 1.825 0 0 0 1.304 1.376 1.824 1.824 0 0 0 1.818-.54c.072.04.142.08.212.122-.197.63-.069 1.34.429 1.838.497.497 1.208.625 1.837.429.043.07.083.14.123.211a1.824 1.824 0 0 0-.54 1.819c.182.68.73 1.16 1.375 1.303v.231a1.824 1.824 0 0 0-1.376 1.304 1.822 1.822 0 0 0 .54 1.818c-.039.072-.08.142-.122.212-.629-.197-1.34-.069-1.837.429-.498.497-.626 1.208-.429 1.837-.07.042-.14.083-.211.122a1.825 1.825 0 0 0-1.82-.54c-.68.183-1.16.731-1.303 1.376a7.06 7.06 0 0 1-.23 0 1.825 1.825 0 0 0-1.304-1.376 1.824 1.824 0 0 0-1.819.54 6.516 6.516 0 0 1-.211-.122c.196-.629.068-1.34-.43-1.837-.497-.498-1.208-.626-1.837-.43a6.393 6.393 0 0 1-.122-.21 1.824 1.824 0 0 0 .54-1.82 1.824 1.824 0 0 0-1.376-1.303 7.066 7.066 0 0 1 0-.23 1.825 1.825 0 0 0 1.376-1.305 1.827 1.827 0 0 0-.54-1.818c.04-.072.08-.142.122-.212.63.197 1.34.07 1.838-.428zm.16 10.839a1.83 1.83 0 0 0 1.352 1.867 1.825 1.825 0 0 0 2.092-.92c.183.007.365.007.548 0a1.826 1.826 0 0 0 3.444-.947c.165-.089.328-.181.486-.281.707.45 1.643.4 2.26-.217.616-.617.666-1.552.216-2.259.1-.159.192-.32.281-.486a1.83 1.83 0 0 0 1.685-2.74c-.173-.3-.44-.51-.74-.67.009-.194.01-.388.003-.582a1.826 1.826 0 0 0-.947-3.443 7.939 7.939 0 0 0-.282-.488c.45-.707.4-1.642-.217-2.259-.616-.616-1.552-.666-2.259-.216a7.915 7.915 0 0 0-.486-.281A1.832 1.832 0 0 0 14.177.063a1.825 1.825 0 0 0-2.092.92 7.85 7.85 0 0 0-.548 0 1.826 1.826 0 0 0-3.444.947 7.888 7.888 0 0 0-.487.282c-.706-.45-1.642-.4-2.259.216-.616.617-.666 1.552-.216 2.26a7.87 7.87 0 0 0-.281.486 1.831 1.831 0 0 0-1.868 1.352c-.228.848.18 1.705.92 2.091a7.862 7.862 0 0 0 0 .549 1.826 1.826 0 0 0 .948 3.444c.088.165.18.327.28.486-.45.707-.4 1.642.217 2.26.617.616 1.552.666 2.26.216.158.1.32.192.486.28z"/></g><g><path fill="#bfbdbd" d="M-.074 20.025a.61.61 0 0 0 .751.752c.626-.176 3.884-1.188 4.67-1.975a2.44 2.44 0 0 0 0-3.447 2.44 2.44 0 0 0-3.447 0c-.787.787-1.799 4.045-1.974 4.67z"/></g></g></g></g></svg>