<svg xmlns="http://www.w3.org/2000/svg" width="22" height="18" viewBox="0 0 22 18"><g><g><path fill="#bfbdbd" d="M10.191 2.067a.972.972 0 1 1 .966 1.523 3.864 3.864 0 0 0-.728 2.25 3.898 3.898 0 0 0 3.894 3.894c.804 0 1.582-.251 2.251-.728a.974.974 0 0 1 1.523.966 6.8 6.8 0 0 1-6.694 5.603 6.822 6.822 0 0 1-6.815-6.814 6.8 6.8 0 0 1 5.603-6.694zm2.704 2.8h.454v-.519a.973.973 0 1 1 1.947 0v.52h.52a.973.973 0 1 1 0 1.946h-.52v.454a.973.973 0 1 1-1.947 0v-.454h-.454a.973.973 0 1 1 0-1.947zM.695 17.522H22.11V0H.695z"/></g><g><path fill="#bfbdbd" d="M11.403 13.628a4.848 4.848 0 0 0 3.953-2.04 5.847 5.847 0 0 1-6.78-6.78 4.848 4.848 0 0 0-2.04 3.953 4.873 4.873 0 0 0 4.867 4.867z"/></g></g></svg>