<svg xmlns="http://www.w3.org/2000/svg" width="21" height="22" viewBox="0 0 21 22"><g><g><g><g><path fill="#0faa00" d="M3.722 3.817l4.201.457L10.57.98l2.648 3.294 4.201-.457-.457 4.201 3.294 2.647-3.294 2.648.457 4.201-4.201-.457-2.648 3.294-2.647-3.294-4.201.457.457-4.2-3.294-2.649 3.294-2.647z"/></g><g><path fill="#4c241d" d="M7.923 16.202a.844.844 0 0 0-.093.005l-3.143.342.342-3.143a.854.854 0 0 0-.315-.76l-2.464-1.98 2.465-1.982a.855.855 0 0 0 .314-.759l-.342-3.143 3.143.342a.86.86 0 0 0 .759-.315l1.981-2.464 1.982 2.464a.85.85 0 0 0 .759.315l3.143-.342-.342 3.143a.855.855 0 0 0 .314.76l2.464 1.98-2.463 1.981a.853.853 0 0 0-.315.76l.342 3.143-3.143-.342a.851.851 0 0 0-.76.314l-1.98 2.465-1.982-2.465a.854.854 0 0 0-.666-.32zm2.647 5.004a.854.854 0 0 0 .667-.32l2.354-2.929 3.736.407a.854.854 0 0 0 .942-.943l-.406-3.735 2.928-2.354a.854.854 0 0 0 0-1.333l-2.928-2.354.406-3.736a.853.853 0 0 0-.942-.942l-3.736.406L11.237.444c-.324-.404-1.009-.404-1.333 0L7.55 3.374l-3.736-.407a.853.853 0 0 0-.943.943l.407 3.735L.349 10a.857.857 0 0 0 .001 1.333l2.928 2.354-.407 3.735a.852.852 0 0 0 .943.943l3.736-.407 2.354 2.93c.162.201.408.319.666.319z"/></g></g><g><path fill="#ffce56" d="M7.142 7.237l2.103.229 1.325-1.65 1.326 1.65 2.103-.23-.229 2.104 1.65 1.325-1.65 1.326.23 2.103-2.104-.229-1.326 1.65-1.325-1.65-2.103.23.228-2.104-1.649-1.325 1.65-1.326z"/></g></g></g></svg>