<svg id="Layer_1" enable-background="new 0 0 512 512" height="512" viewBox="0 0 512 512" width="512" xmlns="http://www.w3.org/2000/svg"><g><g><path d="m226.667 64c-7.364 0-13.333 5.97-13.333 13.333v98.667h26.666v-98.667c0-7.363-5.97-13.333-13.333-13.333z" fill="#fab991"/></g><g><path d="m214 144h-104.667v128h114.667c10.245-10.245 16-24.139 16-38.627v-63.373c0-14.359-11.641-26-26-26z" fill="#f0915a"/></g><g><path d="m109.333 224v-56c0-13.255-10.745-24-24-24-4.418 0-8 3.582-8 8v88c0 17.673 14.327 32 32 32h56c0-26.51-21.49-48-48-48z" fill="#fab991"/></g><g><path d="m122.667 48c-7.364 0-13.333 5.97-13.333 13.333v82.667h26.666v-82.667c0-7.363-5.97-13.333-13.333-13.333z" fill="#fab991"/></g><g><path d="m157.333 16c-7.363 0-13.333 5.97-13.333 13.333v114.667h26.667v-114.667c0-7.363-5.97-13.333-13.334-13.333z" fill="#fab991"/></g><g><path d="m192 32c-7.364 0-13.333 5.97-13.333 13.333v98.667h26.667v-98.667c-.001-7.363-5.97-13.333-13.334-13.333z" fill="#fab991"/></g><g><path d="m109.333 272h114.667v224h-114.667z" fill="#fab991"/></g><g><path d="m224 496h-58.667v-192c0-8.837 7.163-16 16-16h42.667z" fill="#f0915a"/></g><g><path d="m285.333 64c7.364 0 13.333 5.97 13.333 13.333v98.667h-26.666v-98.667c0-7.363 5.97-13.333 13.333-13.333z" fill="#fab991"/></g><g><path d="m298 144h104.667v128h-114.667c-10.245-10.245-16-24.139-16-38.627v-63.373c0-14.359 11.641-26 26-26z" fill="#f0915a"/></g><g><path d="m402.667 224v-56c0-13.255 10.745-24 24-24 4.418 0 8 3.582 8 8v88c0 17.673-14.327 32-32 32h-56c0-26.51 21.49-48 48-48z" fill="#fab991"/></g><g><path d="m389.333 48c7.364 0 13.333 5.97 13.333 13.333v82.667h-26.666v-82.667c0-7.363 5.97-13.333 13.333-13.333z" fill="#fab991"/></g><g><path d="m354.667 16c7.363 0 13.333 5.97 13.333 13.333v114.667h-26.667v-114.667c0-7.363 5.97-13.333 13.334-13.333z" fill="#fab991"/></g><g><path d="m320 32c7.364 0 13.333 5.97 13.333 13.333v98.667h-26.667v-98.667c.001-7.363 5.97-13.333 13.334-13.333z" fill="#fab991"/></g><g><path d="m288 272h114.667v224h-114.667z" fill="#fab991" transform="matrix(-1 0 0 -1 690.667 768)"/></g><g><path d="m346.667 496h56v-208h-40c-8.837 0-16 7.163-16 16z" fill="#f0915a"/></g></g></svg>