<svg id="Capa_1" enable-background="new 0 0 512 512" height="512" viewBox="0 0 512 512" width="512" xmlns="http://www.w3.org/2000/svg"><g><g><path d="m421 15h30v120h-30z" fill="#463f3f"/></g><g><path d="m301 55h30v170h-30z" fill="#463f3f"/></g><g><path d="m181 135h30v180h-30z" fill="#5b5555"/></g><g><path d="m61 215h30v190h-30z" fill="#5b5555"/></g><g><path d="m512 0v30h-131.46l-139.54 93.03-216.68 144.45-16.64-24.96 233.32-155.55 130.46-86.97z" fill="#766e6e"/></g><path d="m512 0v30h-131.46l-139.54 93.03v-36.06l130.46-86.97z" fill="#5b5555"/><g><path d="m361 120v90h-120v90h-120v90h-121v122h512v-392z" fill="#eeaf80"/></g><path d="m512 120v392h-271v-302h120v-90z" fill="#e68a44"/></g></svg>